Patient4_TMGait_0pt8_01_right_39_EMG.mot
version=1
nRows=16
nColumns=33
inDegrees=no
endheader
time	1LAddLong	2LGlutMax	3LGlutMed	4LIliopsoas	5LSemiMemb	6LBicFemLong	7LRecFem	8LVastMed	9LVastLat	10LGasMed	11LTibAnt	12lTibPost	13LPeroneusLong	14LSol	15LExtDigLong	16LFlexDigLong	17RAddLong	18RGlutMax	19RGlutMed	20RIliopsoas	21RSemiMemb	22RBicFemLong	23RRecFem	24RVastMed	25RVastLat	26RGasMed	27RTibAnt	28RTibPost	29RPeroneusLong	30RSol	31RExtDigLong	32RFlexDigLong
43.77	0.021667	-0.10468	0.050507	0.00412	0.098572	-0.39856	0.19134	-0.01709	0.027008	-0.067749	-0.039215	-0.006409	-0.078125	-0.10422	-0.36591	-0.026703	-0.003967	0.042419	0.43259	-0.020905	0.07309	0.062561	0.096741	-0.13046	-0.023804	-0.007629	-0.5661	-0.004578	0.16617	-0.071869	-0.001831	0.026245
43.771	0.02182	-0.085754	0.10178	-0.005798	0.10162	-0.23544	0.19379	-0.016174	0.012665	-0.090485	-0.066223	-0.001068	-0.048828	-0.094452	-0.55939	-0.036316	0.006714	0.024719	0.3508	-0.062561	0.077515	0.058594	0.055237	-0.060272	-0.03067	-0.005188	0.00351	-0.000305	0.112	-0.0737	-0.002441	0.048523
43.772	0.009918	-0.09201	0.088043	-0.003815	0.070496	-0.16663	0.20111	-0.011902	0.007629	-0.15808	0.009918	0.002747	-0.020752	-0.04425	-0.23377	-0.008392	0.016174	-0.005341	0.45059	-0.059357	0.077515	0.052795	-0.001678	-0.016327	-0.023499	-0.00351	0.42831	-0.006866	0.26672	-0.12268	0.000763	0.064087
43.773	0.007324	-0.11566	-0.009308	0.009308	0.033722	-0.37415	0.19119	-0.009308	0.007019	-0.1593	-0.01358	-0.002289	-0.046234	-0.025482	-0.043335	-0.018921	0.010376	-0.012207	0.41046	0.007172	0.074005	0.046692	-0.036163	0.054626	-0.02533	-0.007019	0.55389	0.000305	0.19714	-0.099487	-0.001373	0.084534
43.774	0.005493	-0.072479	0.007629	0.017242	0.01709	-0.088043	0.2182	-0.008087	0.016632	-0.11246	-0.10147	0.00061	-0.000916	0.036774	0.14496	-0.87158	-0.012817	0.027161	0.21316	-0.015411	0.063934	0.045013	-0.2565	0.007782	-0.010986	-0.00824	0.50568	-0.005646	-0.41245	-0.068054	-0.002136	0.093079
43.775	0.003357	-0.10712	-0.022888	-0.003662	0.012207	0.012512	0.24078	-0.002747	0.009613	0.014801	-0.057068	-0.005951	-0.003967	0.050812	0.30563	0.12253	-0.032654	0.037842	0.45548	-0.09964	0.060272	0.049744	-0.25436	0.063934	0.006866	-0.016174	0.33859	-0.001373	-0.53696	0.081024	-0.004883	0.078583
43.776	0.001068	-0.13397	-0.039063	-0.007324	0.014496	-0.028381	0.21515	-0.003662	-0.019836	0.19898	-0.004578	-0.006409	-0.001373	0.015259	0.048523	0.78293	-0.035553	0.021667	0.38223	-0.096436	0.053711	0.065308	-0.096741	0.077209	-0.01709	-0.019531	-0.085754	-0.003815	-0.4042	0.19608	-0.002594	-0.052032
43.777	-0.002136	-0.16556	0	0.012054	-0.024567	-0.10407	0.20279	-0.004883	-0.022583	0.17716	0.025635	-0.009155	0.032196	0.14526	-0.02594	0.3273	-0.018463	0.021362	0.30518	-0.065918	0.05722	0.048218	0.050354	0.049438	0.03418	-0.01236	-0.35507	-0.001831	0.16998	0.21027	-0.001221	-0.1709
43.778	-0.006409	-0.16586	-0.010529	0.014496	-0.029602	-0.099792	0.17716	-0.007477	-0.017548	0.31052	-0.001526	-0.006104	0.006714	0.1799	-0.070953	-0.78384	0.023804	0.013275	0.092316	0.097046	0.059357	0.05249	0.19501	0.10819	0.042267	-0.003967	-0.004883	-0.00412	0.19257	0.037689	-0.000458	-0.21606
43.779	-0.003204	-0.15549	-0.024414	0.005798	0.002441	-0.073547	0.19653	-0.00824	-0.024261	0.46524	-0.034332	-0.009613	-0.005646	-0.011444	0.004883	0.77408	0.041199	0.017853	0.31723	0.14862	0.053864	0.052948	0.26154	0.13855	0.054474	-0.009003	0.34164	0.000763	0.19424	-0.010681	0.009308	-0.20371
43.78	-0.002136	-0.159	-0.062866	0.031281	0.052338	-0.046692	0.21469	-0.002899	-0.018463	0.50964	-0.015717	-0.001831	0.022125	-0.17822	0.088501	0.59845	0.03479	0.058136	0.44266	0.14206	0.043945	0.055084	0.28244	0.21301	0.032043	-0.018616	0.38513	-0.004425	0.14587	0.052032	-0.00412	-0.17838
43.781	-0.009308	-0.15747	-0.068207	0.010681	0.10361	-0.046234	0.27725	0.000916	0.011292	0.383	0.042572	0.007019	0.041046	-0.21164	0.14755	-0.61142	0.047913	0.070801	0.17166	0.13672	0.05188	0.064392	0.27908	0.2179	0.034027	-0.023499	0.41611	-0.003967	0.13138	0.093689	-0.001526	-0.15564
43.782	-0.001373	-0.16419	-0.067902	0.022736	0.090637	0.045929	0.29831	0.007324	0.011749	0.63202	0.10147	0.007172	-0.011139	-0.41	0.12466	0.014038	0.047607	0.10895	0.1091	0.098114	0.042267	0.065308	0.13092	0.097809	0.024109	-0.007019	-0.112	-0.001373	-0.003357	0.06958	-0.003662	-0.12207
43.783	0.002747	-0.1831	-0.026398	0.012054	0.066528	0.066833	0.2858	0.003815	0.000305	-0.095215	0.008698	-0.007782	0.016632	-0.44556	0.10544	0.065765	0.11643	0.12695	0.20554	0.045166	0.03891	0.074615	0.13748	0.035248	0.015411	0.001068	-0.61111	-0.005188	-0.4808	0.066071	0.000458	-0.091553
43.784	-0.003052	-0.19241	-0.026855	0.002441	0.036774	0.017395	0.29617	0	-0.075684	-0.52216	-0.008087	0.019836	-0.014496	-0.35568	0.10986	-0.023804	0.10208	0.12543	0.12634	0.009308	0.036774	0.072327	0.10101	0.027771	0.033875	-0.001526	-0.28412	-0.001984	-0.41962	0.052185	-0.001068	-0.071564
43.785	-0.010986	-0.19547	0.094147	0.007629	0.019226	0.021362	0.27512	-0.00351	-0.17319	-0.65185	-0.03006	0.03006	0.016937	-0.35751	0.10468	0.03067	0.11856	0.10407	0.045776	-0.012665	0.039673	0.077209	0.067444	-0.002289	0.028687	-0.00824	-0.064087	0.007782	0.055084	-0.018768	0.001831	-0.067749
